<svg version="1.1" preserveAspectRatio="none" xmlns="http://www.w3.org/2000/svg" width="500" height="500" viewBox="0 0 500 500"><rect width="100%" height="100%" fill="#FFFFFF" fill-opacity="1"/><svg viewBox="58.2613 242.932 515.7651 104" width="333" height="67.14684650047086" x="83.5px" y="216.4266px" xmlns="http://www.w3.org/2000/svg" xmlns:xlink="http://www.w3.org/1999/xlink" preserveAspectRatio="none"><defs></defs><style>.companyName {fill:#4D4D4D;fill-opacity:1;}.icon1 {fill:#FF834F;fill-opacity:1;}.icon2 {fill:#FF4949;fill-opacity:1;}.icon3 {fill:#FFAE78;fill-opacity:1;}.icon3-str {stroke:#FFAE78;stroke-opacity:1;}.shapeStroke-str {stroke:#313131;stroke-opacity:1;}</style><g opacity="1" transform="rotate(0 58.2613 254.932)">
<svg width="92.7539" height="80" x="58.2613" y="254.932" version="1.1" preserveAspectRatio="none" viewBox="19.999359130859375 31 160.00064086914062 138">
  <g transform="matrix(1 0 0 1 0 0)" ><g><path d="M167.072 46.143c-.723-1.082-1.989-1.893-3.345-1.983-7.051-.721-21.787 2.073-27.392 17.487-1.808 4.867-1.627 9.555-.904 13.25-3.345.361-7.323 1.532-11.12 4.867-5.334 4.777-6.599 10.997-6.599 15.413-4.43.721-9.583 3.155-12.476 9.284-1.175 2.434-1.537 4.867-1.446 7.211-5.605.541-16.453.992-28.206-2.163-22.239-6.039-36.613-21.813-42.58-46.781-.452-1.893-2.079-3.245-3.978-3.425-1.989-.18-3.797.901-4.52 2.704-.452.992-10.306 24.788.633 55.254 0 .361.181.811.271 1.172C37.344 148.719 67.358 169 99.993 169 144.11 169 180 133.396 180 89.679c0-16.044-4.339-30.646-12.928-43.536zM29.479 80.395c10.577 23.886 28.929 33.711 43.755 37.677 14.645 3.966 27.935 2.975 33.54 2.253.09.09.181.27.181.361-5.424 3.605-17.719 9.555-38.331 7.662-14.012-1.262-26.579-8.383-35.076-14.422-4.612-13.07-4.973-24.878-4.069-33.531zm70.514 79.501c-23.414 0-45.292-11.808-58.491-30.466 7.594 3.876 16.544 7.121 26.217 7.932 32.997 2.975 48.185-12.169 48.818-12.799.814-.901 1.356-2.073 1.266-3.245 0-1.262-.542-2.344-1.446-3.155-.09-.09-5.243-4.958-2.983-9.735 2.441-5.048 7.775-4.417 8.407-4.327 1.537.27 2.983-.27 4.068-1.352 1.085-1.082 1.446-2.614 1.175-4.146 0-.09-1.627-7.662 3.345-12.078 4.52-3.966 9.854-2.434 10.035-2.344 1.718.541 3.707 0 4.882-1.352a4.677 4.677 0 0 0 .542-5.048c0-.09-3.345-6.4-.904-12.98 3.526-9.735 12.024-11.357 16.001-11.628 6.78 10.907 10.125 23.075 10.125 36.415-.09 38.76-31.912 70.308-71.057 70.308z" data-color="1" class="icon1"></path><path d="M76.76 81.026c13.922 0 25.222-11.267 25.222-25.058S90.682 31 76.76 31 51.537 42.267 51.537 56.058 62.838 81.026 76.76 81.026zm0-41.012c8.95 0 16.182 7.211 16.182 16.044S85.71 72.012 76.76 72.012s-16.182-7.211-16.182-16.044S67.9 40.014 76.76 40.014z" data-color="1" class="icon1"></path></g></g>
</svg>
</g><g opacity="1" transform="rotate(0 189.0152 269.932)">
<svg width="385.0112" height="50" x="189.0152" y="269.932" version="1.1" preserveAspectRatio="none" viewBox="2.88 -29.68 231 30">
  <g transform="matrix(1 0 0 1 0 0)" class="companyName"><path id="id-D6z1nYkh11" d="M15.60-21.84Q18.60-21.84 21.06-20.46Q23.52-19.08 24.92-16.58Q26.32-14.08 26.32-10.76L26.32-10.76Q26.32-7.44 24.92-4.94Q23.52-2.44 21.06-1.06Q18.60 0.32 15.60 0.32L15.60 0.32Q11.16 0.32 8.84-2.48L8.84-2.48L8.84 0L2.88 0L2.88-29.68L9.12-29.68L9.12-19.24Q11.48-21.84 15.60-21.84L15.60-21.84ZM14.52-4.80Q16.92-4.80 18.46-6.42Q20-8.04 20-10.76L20-10.76Q20-13.48 18.46-15.10Q16.92-16.72 14.52-16.72L14.52-16.72Q12.12-16.72 10.58-15.10Q9.04-13.48 9.04-10.76L9.04-10.76Q9.04-8.04 10.58-6.42Q12.12-4.80 14.52-4.80L14.52-4.80Z M40.72 0.32Q37.32 0.32 34.62-1.10Q31.92-2.52 30.40-5.04Q28.88-7.56 28.88-10.76L28.88-10.76Q28.88-13.96 30.40-16.48Q31.92-19 34.62-20.42Q37.32-21.84 40.72-21.84L40.72-21.84Q44.12-21.84 46.80-20.42Q49.48-19 51-16.48Q52.52-13.96 52.52-10.76L52.52-10.76Q52.52-7.56 51-5.04Q49.48-2.52 46.80-1.10Q44.12 0.32 40.72 0.32L40.72 0.32ZM40.72-4.80Q43.12-4.80 44.66-6.42Q46.20-8.04 46.20-10.76L46.20-10.76Q46.20-13.48 44.66-15.10Q43.12-16.72 40.72-16.72L40.72-16.72Q38.32-16.72 36.76-15.10Q35.20-13.48 35.20-10.76L35.20-10.76Q35.20-8.04 36.76-6.42Q38.32-4.80 40.72-4.80L40.72-4.80Z M66.92 0.32Q63.52 0.32 60.82-1.10Q58.12-2.52 56.60-5.04Q55.08-7.56 55.08-10.76L55.08-10.76Q55.08-13.96 56.60-16.48Q58.12-19 60.82-20.42Q63.52-21.84 66.92-21.84L66.92-21.84Q70.32-21.84 73-20.42Q75.68-19 77.20-16.48Q78.72-13.96 78.72-10.76L78.72-10.76Q78.72-7.56 77.20-5.04Q75.68-2.52 73-1.10Q70.32 0.32 66.92 0.32L66.92 0.32ZM66.92-4.80Q69.32-4.80 70.86-6.42Q72.40-8.04 72.40-10.76L72.40-10.76Q72.40-13.48 70.86-15.10Q69.32-16.72 66.92-16.72L66.92-16.72Q64.52-16.72 62.96-15.10Q61.40-13.48 61.40-10.76L61.40-10.76Q61.40-8.04 62.96-6.42Q64.52-4.80 66.92-4.80L66.92-4.80Z M98.92 0L92.12-8.44L89.12-5.48L89.12 0L82.88 0L82.88-29.68L89.12-29.68L89.12-12.88L98.24-21.52L105.68-21.52L96.72-12.40L106.48 0L98.92 0Z M115.80 0.32Q113.12 0.32 110.56-0.34Q108-1 106.48-2L106.48-2L108.56-6.48Q110-5.56 112.04-4.98Q114.08-4.40 116.04-4.40L116.04-4.40Q120-4.40 120-6.36L120-6.36Q120-7.28 118.92-7.68Q117.84-8.08 115.60-8.36L115.60-8.36Q112.96-8.76 111.24-9.28Q109.52-9.80 108.26-11.12Q107-12.44 107-14.88L107-14.88Q107-16.92 108.18-18.50Q109.36-20.08 111.62-20.96Q113.88-21.84 116.96-21.84L116.96-21.84Q119.24-21.84 121.50-21.34Q123.76-20.84 125.24-19.96L125.24-19.96L123.16-15.52Q120.32-17.12 116.96-17.12L116.96-17.12Q114.96-17.12 113.96-16.56Q112.96-16 112.96-15.12L112.96-15.12Q112.96-14.12 114.04-13.72Q115.12-13.32 117.48-12.96L117.48-12.96Q120.12-12.52 121.80-12.02Q123.48-11.52 124.72-10.20Q125.96-8.88 125.96-6.52L125.96-6.52Q125.96-4.52 124.76-2.96Q123.56-1.40 121.26-0.54Q118.96 0.32 115.80 0.32L115.80 0.32Z M142.00-5.44L143.68-1.04Q142.76-0.36 141.42-0.02Q140.08 0.32 138.60 0.32L138.60 0.32Q134.76 0.32 132.66-1.64Q130.56-3.60 130.56-7.40L130.56-7.40L130.56-16.24L127.24-16.24L127.24-21.04L130.56-21.04L130.56-26.28L136.80-26.28L136.80-21.04L142.16-21.04L142.16-16.24L136.80-16.24L136.80-7.48Q136.80-6.12 137.50-5.38Q138.20-4.64 139.48-4.64L139.48-4.64Q140.96-4.64 142.00-5.44L142.00-5.44Z M167.60-10.68Q167.60-10.56 167.48-9L167.48-9L151.20-9Q151.64-7 153.28-5.84Q154.92-4.68 157.36-4.68L157.36-4.68Q159.04-4.68 160.34-5.18Q161.64-5.68 162.76-6.76L162.76-6.76L166.08-3.16Q163.04 0.32 157.20 0.32L157.20 0.32Q153.56 0.32 150.76-1.10Q147.96-2.52 146.44-5.04Q144.92-7.56 144.92-10.76L144.92-10.76Q144.92-13.92 146.42-16.46Q147.92-19 150.54-20.42Q153.16-21.84 156.40-21.84L156.40-21.84Q159.56-21.84 162.12-20.48Q164.68-19.12 166.14-16.58Q167.60-14.04 167.60-10.68L167.60-10.68ZM156.44-17.12Q154.32-17.12 152.88-15.92Q151.44-14.72 151.12-12.64L151.12-12.64L161.72-12.64Q161.40-14.68 159.96-15.90Q158.52-17.12 156.44-17.12L156.44-17.12Z M171.76 0L171.76-29.68L178.00-29.68L178.00 0L171.76 0Z M183.80 0L183.80-29.68L190.04-29.68L190.04 0L183.80 0Z M204.52-21.84Q209.52-21.84 212.20-19.46Q214.88-17.08 214.88-12.28L214.88-12.28L214.88 0L209.04 0L209.04-2.68Q207.28 0.32 202.48 0.32L202.48 0.32Q200 0.32 198.18-0.52Q196.36-1.36 195.40-2.84Q194.44-4.32 194.44-6.20L194.44-6.20Q194.44-9.20 196.70-10.92Q198.96-12.64 203.68-12.64L203.68-12.64L208.64-12.64Q208.64-14.68 207.40-15.78Q206.16-16.88 203.68-16.88L203.68-16.88Q201.96-16.88 200.30-16.34Q198.64-15.80 197.48-14.88L197.48-14.88L195.24-19.24Q197-20.48 199.46-21.16Q201.92-21.84 204.52-21.84L204.52-21.84ZM204.04-3.88Q205.64-3.88 206.88-4.62Q208.12-5.36 208.64-6.80L208.64-6.80L208.64-9L204.36-9Q200.52-9 200.52-6.48L200.52-6.48Q200.52-5.28 201.46-4.58Q202.40-3.88 204.04-3.88L204.04-3.88Z M226.48-18.68Q227.60-20.24 229.50-21.04Q231.40-21.84 233.88-21.84L233.88-21.84L233.88-16.08Q232.84-16.16 232.48-16.16L232.48-16.16Q229.80-16.16 228.28-14.66Q226.76-13.16 226.76-10.16L226.76-10.16L226.76 0L220.52 0L220.52-21.52L226.48-21.52L226.48-18.68Z"/></g>
</svg>
</g><g opacity="1" transform="rotate(0 169.0152 242.932)">
<svg width="4" height="104" x="169.0152" y="242.932" version="1.1" preserveAspectRatio="none" viewBox="0 0 4 104">
  <rect x="0" y="0" width="4" height="104" class="companyName shapeStroke-str" style="stroke-width:0;" rx="0px" ry="0px" />
</svg>
</g></svg></svg>